<svg xmlns="http://www.w3.org/2000/svg" xmlns:xlink="http://www.w3.org/1999/xlink" width="500" zoomAndPan="magnify" viewBox="0 0 375 374.999991" height="500" preserveAspectRatio="xMidYMid meet" version="1.0"><path fill="#e4e4e4" d="M 375 375 L 0 375 L 0 0 L 375 0 Z M 57.789062 30.625 C 42.527344 30.625 30.15625 43 30.15625 58.261719 L 30.15625 150.378906 C 30.15625 165.640625 42.527344 178.011719 57.789062 178.011719 L 88.414062 178.011719 C 103.679688 178.011719 116.050781 165.640625 116.050781 150.378906 C 116.050781 165.640625 128.421875 178.011719 143.6875 178.011719 L 317.132812 178.011719 C 332.394531 178.011719 344.765625 165.640625 344.765625 150.378906 L 344.765625 58.261719 C 344.765625 43 332.394531 30.625 317.132812 30.625 L 143.6875 30.625 C 128.421875 30.625 116.050781 43 116.050781 58.261719 C 116.050781 43 103.679688 30.625 88.414062 30.625 Z M 57.789062 30.625 " fill-opacity="1" fill-rule="nonzero"/></svg>