<svg width="4771" height="4771" viewBox="0 0 4771 4771" fill="none" xmlns="http://www.w3.org/2000/svg">
<g filter="url(#filter0_d_5_7)">
<path d="M4767 4763H4V0H4767V4763ZM738 389C544.148 389 387 546.148 387 740V1910C387 2103.85 544.148 2261 738 2261H1127C1320.85 2261 1478 2103.85 1478 1910C1478 2103.85 1635.15 2261 1829 2261H4032C4225.85 2261 4383 2103.85 4383 1910V740C4383 546.148 4225.85 389 4032 389H1829C1635.15 389 1478 546.148 1478 740C1478 546.148 1320.85 389 1127 389H738Z" fill="#805151"/>
</g>
<defs>
<filter id="filter0_d_5_7" x="0" y="0" width="4771" height="4771" filterUnits="userSpaceOnUse" color-interpolation-filters="sRGB">
<feFlood flood-opacity="0" result="BackgroundImageFix"/>
<feColorMatrix in="SourceAlpha" type="matrix" values="0 0 0 0 0 0 0 0 0 0 0 0 0 0 0 0 0 0 127 0" result="hardAlpha"/>
<feOffset dy="4"/>
<feGaussianBlur stdDeviation="2"/>
<feComposite in2="hardAlpha" operator="out"/>
<feColorMatrix type="matrix" values="0 0 0 0 0 0 0 0 0 0 0 0 0 0 0 0 0 0 0.25 0"/>
<feBlend mode="normal" in2="BackgroundImageFix" result="effect1_dropShadow_5_7"/>
<feBlend mode="normal" in="SourceGraphic" in2="effect1_dropShadow_5_7" result="shape"/>
</filter>
</defs>
</svg>
